<svg width="45" height="47" viewBox="0 0 45 47" fill="none" xmlns="http://www.w3.org/2000/svg">
<path d="M9.94234 46.815L10.4823 46.215L10.9623 45.915L11.5023 46.215C12.2823 45.615 12.9423 44.955 13.4823 44.295C14.0223 43.635 15.0423 41.895 16.6623 39.195L20.3823 32.895C22.3623 29.535 32.7423 15.435 35.0823 12.795C40.4823 6.61505 42.2823 4.75505 43.0023 3.79505C43.6623 2.95505 44.0823 2.29505 44.0823 1.81505C44.0823 1.51505 43.9023 1.03505 43.6023 1.03505C43.3023 1.03505 42.8223 1.27505 42.2223 1.69505L42.7023 0.615048L40.6623 1.81505L40.7823 0.975047C40.6623 1.33505 39.7023 2.29505 39.4623 2.29505C39.2823 2.29505 39.2223 2.11505 39.2223 1.81505V1.57505L37.5423 2.41505C37.4223 2.41505 37.3023 2.35505 37.3023 2.17505C37.3023 1.99505 37.4223 1.57505 37.5423 0.975047C36.7023 1.87505 35.5023 2.89505 33.9423 3.97505C31.8423 5.41505 23.6823 15.675 20.3823 21.015C18.1623 24.555 17.2623 26.655 16.9023 26.655C16.7823 26.655 16.7223 26.415 16.6623 25.935C15.5823 28.395 14.6223 30.435 13.6623 31.935C12.7023 33.435 11.8023 34.215 11.1423 34.215C10.3623 34.215 9.70234 32.715 8.98234 29.655C8.68234 28.335 8.02234 27.495 7.06234 27.015L6.88234 26.955C6.70234 26.955 6.46234 27.075 6.16234 27.255C5.86234 27.435 5.68234 27.615 5.56234 27.615H5.50234L4.42234 27.255L3.46234 28.695C3.34234 28.875 3.10234 28.935 2.92234 28.935C2.62234 28.935 2.38234 28.875 2.26234 28.695C2.02234 29.535 1.72234 29.955 1.48234 29.955C1.30234 29.955 0.942344 29.835 0.462344 29.535C0.882344 32.715 1.24234 34.815 1.60234 35.835C2.32234 37.815 3.94234 42.315 5.50234 45.315C5.68234 45.675 5.92234 46.095 6.10234 46.455C6.70234 46.095 6.88234 46.035 7.30234 46.035L7.78234 46.095C8.08234 46.215 8.26234 46.395 8.26234 46.695L9.64234 46.035C9.88234 46.035 9.94234 46.275 9.94234 46.815Z" fill="#ABC9BE"/>
</svg>
